<svg xmlns="http://www.w3.org/2000/svg" version="1.1" xmlns:xlink="http://www.w3.org/1999/xlink" xmlns:svgjs="http://svgjs.dev/svgjs" width="661" height="528"><svg version="1.2" xmlns="http://www.w3.org/2000/svg" viewBox="0 0 661 528" width="661" height="528">
	<title>Manza_Logo_light</title>
	<style>
		.s0 { fill: #000000 } 
	</style>
	<path class="s0" d="m143.7 143.2c-1-7-2-13.9-2.3-20.9 26.7-0.2 71.7 8 94.3 21.7-22.3-3.2-44.2-2.3-66.4 0.8 0.3 5.5 1.2 11 1.8 16.5q2.1 17.2 3.6 34.4 4.9 67.3 6.1 134.8c21.7-1.2 44 3.5 64.3 10.6 26.4 9.3 50.5 24.3 69.2 45.3 5.3 6 10.4 12.4 13.9 19.7-2.7-2.8-5.1-5.9-7.7-8.8q-4.8-5.3-10.2-10-5.4-4.6-11.3-8.6c-30.2-20.2-67.9-31-104.3-28.1-12.1 1-24.2 3.8-36.2 6.2-1.1-28-1.7-56-3.1-84q-2.8-50.8-7.7-101.4c-6.9 1.1-14 1.5-20.9 2.6 0.4 6.4 1.1 12.7 1.7 19.1 0.8 6.1 1.2 12.4 1.7 18.5q1.7 20 3.1 39.9 4.6 67.7 5.3 135.5c30.6-9.5 61.4-16.6 93.7-15.7 34.3 1.1 72.9 11.9 97.1 37.6-2.6-1.3-5.2-2.4-7.9-3.4q-8.3-3.1-16.9-5.6-8.6-2.4-17.3-4.2c-44.9-8.6-95.6-3.2-138.6 11.8-10.6 3.7-20.9 8.4-31.1 13.2-0.4-7.6-1.3-15.2-2-22.7l-3.9-43.6-12.4-141.2-2.9-34.3c-0.9-9.8-1.9-19.5-2.3-29.3 8.7-1.5 17.3-3.4 26-4.5 7.8-1.1 15.7-1.4 23.6-1.9z"></path>
	<path class="s0" d="m422.9 144.1c27.9-13 56.7-19.9 87.5-21.6 2.6-0.3 5.3-0.2 8-0.3-0.4 7-1.5 14-2.4 21 4.5 0.5 9 0.5 13.5 0.9 11.8 0.9 24.2 2.4 35.5 5.8q0.2 0.4 0.3 0.9c1 3.6-3.2 41.5-3.9 49.5l-11 126.9c-2.5 28.7-4.8 57.4-7.7 86.1-0.2 2.2-0.1 5.3-1.3 7.3-0.2-0.2-0.4-0.4-0.7-0.6-5.2-3.5-13.6-6.2-19.4-8.6-43.3-17.4-96.8-24.4-142.9-16.8-9.6 1.6-19.4 3.7-28.6 6.8-6.1 2.1-12.2 5.3-18.5 6.5l-0.4-0.3c0.8-1.3 2.8-2.4 4-3.4 7.5-6 15-11.4 23.5-15.9 36.2-19.1 80-20.4 119.5-12.7 14.7 2.8 28.8 7 43.1 11.4-0.1-18 0.6-36.2 1.3-54.2q1.7-53.3 5.9-106.3c0.3-4.4 2.8-24 1.8-27.4 0.2-0.2 0.3-0.3 0.4-0.7 0.9-3.3 3.1-21.9 1.6-24.4-3.8-1.5-15.3-2.1-20-2.6-5.2 40.3-7.2 81.1-8.6 121.7l-1.4 39.3c-0.3 8-0.1 16.4-1.1 24.3-6.5-0.9-12.9-2.5-19.3-3.7-11-2.1-21.8-3.2-33-2.8-35.2 1.1-74.1 14.6-100.6 38.1-6.4 5.6-11.1 12.1-16.9 18.2 3.7-9.1 11.4-17.8 18.2-24.6 27-27.4 63.9-44.7 101.9-49.8 9.2-1.3 18.4-1.6 27.7-1.6q0.3-46.5 3.2-92.9 2.9-46.4 8.3-92.6c-21.3-4.6-45.9-3.4-67.5-0.9z"></path>
	<path class="s0" d="m252.1 187.2c-0.1-1.7-0.4-4.2 0.3-5.7l0.9-0.2q18.4-0.2 36.8 0.1c3.8 10.3 8.7 20.4 13 30.6l27.2 63.3c1-2.9 2.5-5.7 3.7-8.5q3.5-7.6 6.9-15.3c10.2-23.4 21.2-46.6 30.7-70.2q17.9-0.6 35.7 0.2v5.7c-3.6 0.5-7.7 0.8-10.7 3-3 2.2-3.8 5.9-4.3 9.3-0.9 6.7-0.7 13.5-0.7 20.2v25 22.9c0 5.6-0.2 11.4 0.5 17.1 0.3 2.8 0.9 5.8 2.8 8.1 3.1 3.9 9.6 3.8 14 4.3v5.8c-17.1 0.4-34.2 0.2-51.3 0l-0.1-5.8c4.7-0.6 10.2-0.6 13.8-4.1 1.9-2 2.6-5 3-7.6 1.3-8.3 0.7-17.1 0.7-25.4v-40c0.1-6.6 0.5-13.5-0.4-20.2-3.3 4.9-5.3 10.3-7.7 15.6l-8.2 18.6-31.7 71.1c-1.1 0-2.3-0.2-3.4-0.2-10.4-22.9-20.2-46.1-30.3-69.1-5.1-11.9-10.1-23.9-15.8-35.5 0.2 17.9 0.1 35.8 0 53.8 0 9.4-0.6 19 0.3 28.4 0.3 2.9 0.7 7.4 2.6 9.8 3.3 4.3 9.6 4.2 14.4 4.8l-0.1 5.8c-14.7 0.4-29.5 0.2-44.2 0v-5.8c4.1-0.6 9-0.6 12.5-3.1 3.1-2.3 3.7-5.4 4.3-9 0.9-6 0.7-12.2 0.7-18.3v-22.3-25c0-5.8 0.1-11.7-0.4-17.5-0.2-2.8-0.5-7.1-2.3-9.4-3.1-4.2-8.5-4.6-13.2-5.3z"></path>
</svg><style>@media (prefers-color-scheme: light) { :root { filter: none; } }
@media (prefers-color-scheme: dark) { :root { filter: none; } }
</style></svg>